<svg width="155" height="146" viewBox="0 0 155 146" fill="none" xmlns="http://www.w3.org/2000/svg">
<path d="M146.602 39.9146C151.225 48.4657 154.113 57.9893 154.826 68.0732L149.839 68.4261C149.946 69.937 150 71.4621 150 73C150 74.5378 149.946 76.063 149.839 77.5739L154.826 77.9268C154.113 88.0107 151.225 97.5343 146.602 106.085L142.204 103.707C140.751 106.394 139.112 108.98 137.303 111.45L141.337 114.405C135.57 122.278 128.204 129.032 119.681 134.25L117.07 129.986C114.465 131.582 111.742 133.024 108.917 134.301L110.976 138.857C102.242 142.803 92.6011 145.254 82.4278 145.855L82.1328 140.864C80.6015 140.954 79.0568 141 77.5 141C75.9432 141 74.3985 140.954 72.8672 140.864L72.5722 145.855C62.3989 145.254 52.7581 142.803 44.0238 138.857L46.0825 134.301C43.2577 133.024 40.5353 131.582 37.9296 129.986L35.3188 134.25C26.7957 129.032 19.4299 122.278 13.6633 114.405L17.6971 111.45C15.8877 108.98 14.2492 106.394 12.7965 103.707L8.39825 106.085C3.77452 97.5343 0.887159 88.0107 0.173717 77.9268L5.16125 77.5739C5.05435 76.063 5 74.5379 5 73C5 71.4622 5.05435 69.937 5.16125 68.4261L0.173717 68.0732C0.887158 57.9893 3.77452 48.4657 8.39825 39.9146L12.7965 42.2927C14.2492 39.6061 15.8877 37.02 17.6971 34.5496L13.6633 31.5951C19.4299 23.7219 26.7957 16.9679 35.3188 11.7495L37.9296 16.0137C40.5353 14.4184 43.2577 12.9756 46.0825 11.6993L44.0238 7.14276C52.7581 3.19651 62.3989 0.746465 72.5722 0.145185L72.8672 5.13647C74.3985 5.04597 75.9432 5 77.5 5C79.0568 5 80.6015 5.04597 82.1328 5.13647L82.4278 0.145185C92.6011 0.746464 102.242 3.19651 110.976 7.14276L108.917 11.6993C111.742 12.9756 114.465 14.4184 117.07 16.0137L119.681 11.7495C128.204 16.9679 135.57 23.7219 141.337 31.5951L137.303 34.5496C139.112 37.02 140.751 39.6061 142.204 42.2927L146.602 39.9146Z" stroke="#007F90" stroke-width="10" stroke-dasharray="10 30"/>
</svg>
